<svg width="512" height="512" viewBox="0 0 512 512" fill="none" xmlns="http://www.w3.org/2000/svg">
  <style>
    .logo-path { fill: #0f0f0f }
    @media (prefers-color-scheme: dark) {
      .logo-path { fill: #ffffff }
    }
  </style>
  <path class="logo-path" fill-rule="evenodd" clip-rule="evenodd" d="M237.261 0.521309C242.709 0.178615 248.167 0.00476183 253.626 0C368.966 0 466.562 76.8372 498.166 182.207C450.502 207.172 411.947 246.563 388.012 294.754C377.369 316.225 369.827 339.1 365.614 362.691C358.505 402.605 360.978 443.636 372.829 482.406C336.126 501.895 295.192 512.058 253.635 512C181.146 512 115.675 481.652 69.1851 432.938C81.7866 432.349 94.3266 430.821 106.701 428.367C123.544 425.024 139.999 419.958 155.806 413.249C213.163 388.851 259.575 344.257 286.245 287.921C297.43 264.279 304.882 239.047 308.336 213.122C311.966 185.912 311.221 158.106 306.064 131.137C301.459 107.128 293.4 83.9119 282.14 62.2126C270.351 39.5214 255.226 18.7264 237.27 0.521309H237.261ZM506.386 193.731C510.063 211.605 512 230.158 512 249.176C512 342.211 465.808 423.973 396.26 470.491C393.216 459.32 390.954 447.925 389.492 436.419C386.148 410.155 386.93 383.529 391.81 357.506C396.063 334.984 403.425 313.163 413.687 292.668C425.352 269.389 440.713 248.153 459.171 229.785C473.288 215.777 489.153 203.659 506.386 193.731ZM211.949 0C213.504 1.41498 215.04 2.85789 216.576 4.29149C235.744 22.5682 251.741 43.9036 263.913 67.4257C274.333 87.6472 281.831 109.246 286.18 131.575C291.142 157.221 291.933 183.724 288.535 209.622C285.373 233.78 278.552 257.316 268.307 279.422C256.318 305.203 239.824 328.639 219.601 348.625C198.817 369.151 174.355 385.582 147.493 397.06C119.363 409.033 89.0984 415.182 58.5262 415.139C56.9064 415.139 55.3239 415.111 53.7134 415.083C20.0704 371.107 0 315.764 0 255.665C0 127.134 91.769 20.3031 211.949 0Z"/>
</svg>